<?xml version="1.0" encoding="us-ascii" standalone="no"?><svg xmlns="http://www.w3.org/2000/svg" xmlns:xlink="http://www.w3.org/1999/xlink" contentStyleType="text/css" height="731px" preserveAspectRatio="none" style="width:477px;height:731px;background:#FFFFFF;" version="1.1" viewBox="0 0 477 731" width="477px" zoomAndPan="magnify"><defs/><g><!--cluster Server Side--><g id="cluster_Server Side"><rect fill="none" height="415" rx="2.5" ry="2.5" style="stroke:#181818;stroke-width:1.0;" width="284" x="9" y="310"/><text fill="#000000" font-family="sans-serif" font-size="14" font-weight="bold" lengthAdjust="spacing" textLength="92" x="105" y="324.9951">Server Side</text></g><!--cluster Client Side--><g id="cluster_Client Side"><rect fill="none" height="254" rx="2.5" ry="2.5" style="stroke:#181818;stroke-width:1.0;" width="204" x="7" y="7"/><text fill="#000000" font-family="sans-serif" font-size="14" font-weight="bold" lengthAdjust="spacing" textLength="84" x="67" y="21.9951">Client Side</text></g><!--cluster External Services--><g id="cluster_External Services"><rect fill="none" height="114" rx="2.5" ry="2.5" style="stroke:#181818;stroke-width:1.0;" width="154" x="317" y="611"/><text fill="#000000" font-family="sans-serif" font-size="14" font-weight="bold" lengthAdjust="spacing" textLength="137" x="325.5" y="625.9951">External Services</text></g><!--entity pg--><g id="elem_pg"><rect fill="#F1F1F1" height="62.5938" rx="2.5" ry="2.5" style="stroke:#181818;stroke-width:0.5;" width="124" x="86" y="646"/><rect fill="#F1F1F1" height="10" style="stroke:#181818;stroke-width:0.5;" width="15" x="190" y="651"/><rect fill="#F1F1F1" height="2" style="stroke:#181818;stroke-width:0.5;" width="4" x="188" y="653"/><rect fill="#F1F1F1" height="2" style="stroke:#181818;stroke-width:0.5;" width="4" x="188" y="657"/><text fill="#000000" font-family="sans-serif" font-size="14" font-style="italic" lengthAdjust="spacing" textLength="84" x="101" y="678.9951">&#171;Database&#187;</text><text fill="#000000" font-family="sans-serif" font-size="14" lengthAdjust="spacing" textLength="81" x="102.5" y="695.292">PostgreSQL</text></g><!--entity docker--><g id="elem_docker"><rect fill="#F1F1F1" height="62.5938" rx="2.5" ry="2.5" style="stroke:#181818;stroke-width:0.5;" width="125" x="151.5" y="485"/><rect fill="#F1F1F1" height="10" style="stroke:#181818;stroke-width:0.5;" width="15" x="256.5" y="490"/><rect fill="#F1F1F1" height="2" style="stroke:#181818;stroke-width:0.5;" width="4" x="254.5" y="492"/><rect fill="#F1F1F1" height="2" style="stroke:#181818;stroke-width:0.5;" width="4" x="254.5" y="496"/><text fill="#000000" font-family="sans-serif" font-size="14" font-style="italic" lengthAdjust="spacing" textLength="85" x="166.5" y="517.9951">&#171;Container&#187;</text><text fill="#000000" font-family="sans-serif" font-size="14" lengthAdjust="spacing" textLength="50" x="184" y="534.292">Docker</text></g><!--entity fiber--><g id="elem_fiber"><rect fill="#F1F1F1" height="62.5938" rx="2.5" ry="2.5" style="stroke:#181818;stroke-width:0.5;" width="169" x="24.5" y="345"/><rect fill="#F1F1F1" height="10" style="stroke:#181818;stroke-width:0.5;" width="15" x="173.5" y="350"/><rect fill="#F1F1F1" height="2" style="stroke:#181818;stroke-width:0.5;" width="4" x="171.5" y="352"/><rect fill="#F1F1F1" height="2" style="stroke:#181818;stroke-width:0.5;" width="4" x="171.5" y="356"/><text fill="#000000" font-family="sans-serif" font-size="14" font-style="italic" lengthAdjust="spacing" textLength="129" x="39.5" y="377.9951">&#171;Web Framework&#187;</text><text fill="#000000" font-family="sans-serif" font-size="14" lengthAdjust="spacing" textLength="58" x="75" y="394.292">Go Fiber</text></g><!--entity orm--><g id="elem_orm"><rect fill="#F1F1F1" height="62.5938" rx="2.5" ry="2.5" style="stroke:#181818;stroke-width:0.5;" width="91" x="25.5" y="485"/><rect fill="#F1F1F1" height="10" style="stroke:#181818;stroke-width:0.5;" width="15" x="96.5" y="490"/><rect fill="#F1F1F1" height="2" style="stroke:#181818;stroke-width:0.5;" width="4" x="94.5" y="492"/><rect fill="#F1F1F1" height="2" style="stroke:#181818;stroke-width:0.5;" width="4" x="94.5" y="496"/><text fill="#000000" font-family="sans-serif" font-size="14" font-style="italic" lengthAdjust="spacing" textLength="51" x="40.5" y="517.9951">&#171;ORM&#187;</text><text fill="#000000" font-family="sans-serif" font-size="14" lengthAdjust="spacing" textLength="44" x="44" y="534.292">GORM</text></g><!--entity bs--><g id="elem_bs"><rect fill="#F1F1F1" height="62.5938" rx="2.5" ry="2.5" style="stroke:#181818;stroke-width:0.5;" width="172" x="23" y="42"/><rect fill="#F1F1F1" height="10" style="stroke:#181818;stroke-width:0.5;" width="15" x="175" y="47"/><rect fill="#F1F1F1" height="2" style="stroke:#181818;stroke-width:0.5;" width="4" x="173" y="49"/><rect fill="#F1F1F1" height="2" style="stroke:#181818;stroke-width:0.5;" width="4" x="173" y="53"/><text fill="#000000" font-family="sans-serif" font-size="14" font-style="italic" lengthAdjust="spacing" textLength="132" x="38" y="74.9951">&#171;internet browser&#187;</text><text fill="#000000" font-family="sans-serif" font-size="14" lengthAdjust="spacing" textLength="57" x="75.5" y="91.292">Browser</text></g><!--entity http--><g id="elem_http"><rect fill="#F1F1F1" height="62.5938" rx="2.5" ry="2.5" style="stroke:#181818;stroke-width:0.5;" width="122" x="48" y="182"/><rect fill="#F1F1F1" height="10" style="stroke:#181818;stroke-width:0.5;" width="15" x="150" y="187"/><rect fill="#F1F1F1" height="2" style="stroke:#181818;stroke-width:0.5;" width="4" x="148" y="189"/><rect fill="#F1F1F1" height="2" style="stroke:#181818;stroke-width:0.5;" width="4" x="148" y="193"/><text fill="#000000" font-family="sans-serif" font-size="14" font-style="italic" lengthAdjust="spacing" textLength="82" x="63" y="214.9951">&#171;API Client&#187;</text><text fill="#000000" font-family="sans-serif" font-size="14" lengthAdjust="spacing" textLength="80" x="64" y="231.292">HTTP Client</text></g><!--entity hub--><g id="elem_hub"><rect fill="#F1F1F1" height="62.5938" rx="2.5" ry="2.5" style="stroke:#181818;stroke-width:0.5;" width="122" x="333" y="646"/><rect fill="#F1F1F1" height="10" style="stroke:#181818;stroke-width:0.5;" width="15" x="435" y="651"/><rect fill="#F1F1F1" height="2" style="stroke:#181818;stroke-width:0.5;" width="4" x="433" y="653"/><rect fill="#F1F1F1" height="2" style="stroke:#181818;stroke-width:0.5;" width="4" x="433" y="657"/><text fill="#000000" font-family="sans-serif" font-size="14" font-style="italic" lengthAdjust="spacing" textLength="74" x="352" y="678.9951">&#171;Registry&#187;</text><text fill="#000000" font-family="sans-serif" font-size="14" lengthAdjust="spacing" textLength="82" x="348" y="695.292">Docker Hub</text></g><!--link docker to pg--><g id="link_docker_pg"><path d="M201.27,548.16 C189.59,576.31 172.36,617.81 160.69,645.94 " fill="none" id="docker-pg" style="stroke:#181818;stroke-width:1.0;"/><text fill="#000000" font-family="sans-serif" font-size="13" lengthAdjust="spacing" textLength="51" x="189" y="591.0669">&#171;hosts&#187;</text></g><!--link fiber to orm--><g id="link_fiber_orm"><path d="M100.57,408.13 C94.27,431 85.7,462.11 79.41,484.96 " fill="none" id="fiber-orm" style="stroke:#181818;stroke-width:1.0;"/><text fill="#000000" font-family="sans-serif" font-size="13" lengthAdjust="spacing" textLength="46" x="93" y="451.0669">&#171;uses&#187;</text></g><!--link orm to pg--><g id="link_orm_pg"><path d="M71.07,548.35 C72.07,562.99 74.7,580.43 81,595 C89.07,613.66 102.74,631.46 115.63,645.64 " fill="none" id="orm-pg" style="stroke:#181818;stroke-width:1.0;"/><text fill="#000000" font-family="sans-serif" font-size="13" lengthAdjust="spacing" textLength="91" x="82" y="591.0669">&#171;connects to&#187;</text></g><!--link bs to http--><g id="link_bs_http"><path d="M109,105.13 C109,128 109,159.11 109,181.96 " fill="none" id="bs-http" style="stroke:#181818;stroke-width:1.0;"/><text fill="#000000" font-family="sans-serif" font-size="13" lengthAdjust="spacing" textLength="46" x="110" y="148.0669">&#171;uses&#187;</text></g><!--link http to fiber--><g id="link_http_fiber"><path d="M109,245.16 C109,273.81 109,316.34 109,344.95 " fill="none" id="http-fiber" style="stroke:#181818;stroke-width:1.0;"/><text fill="#000000" font-family="sans-serif" font-size="13" lengthAdjust="spacing" textLength="108" x="110" y="290.0669">&#171;HTTP requests&#187;</text></g><!--link docker to hub--><g id="link_docker_hub"><path d="M248.71,548.16 C280.58,576.31 327.56,617.81 359.4,645.94 " fill="none" id="docker-hub" style="stroke:#181818;stroke-width:1.0;"/><text fill="#000000" font-family="sans-serif" font-size="13" lengthAdjust="spacing" textLength="79" x="299" y="591.0669">&#171;pulls from&#187;</text></g><!--SRC=[TL9DJy904BttLqnwySJ5eo5D54HCD28byK0uxC9ODhIxTMSh4kD_TxRJ42dIosRdVSpCszBEs5fvLS7QLRMpQ4CU3YL2KvNNIU9n7PGj-9xcw3_HGsuscC9t0lmT9P3E78N2O_xwbC9mE5P1QKMOPQ08wgBF7hlr3draZfmDobZqGjsqG9_-u61Yj0ZUKCE4vyMzypiHlKViJFCoVuvyFeJbV9Nyd6mqAasaNjZephizIKymDg2t641B4SHIKryqNInc8BvHU3jxx6uYs8PGzuQu_uhMgeIOhraZ_JEAn0NJHaVJEHQ6WZzqbesEZbVGlG_nDgorbbiOPobPIgOh60nWMHShk66FBJyNPLcoRBCJZ0CIi25iiRRmLzNP4WJ7EFVi4ZplgKcKSU5JKwb4h6iTmJOsZnyDobXiVSpbuYwykQZhfYpvB_2kOkal]--></g></svg>